<svg width="54" height="27" viewBox="0 0 54 27" fill="none" xmlns="http://www.w3.org/2000/svg">
<path d="M9.022 21.104C7.58333 21.104 6.30067 20.8007 5.174 20.194C4.06467 19.57 3.18933 18.7207 2.548 17.646C1.924 16.554 1.612 15.306 1.612 13.902C1.612 12.4807 1.90667 11.2327 2.496 10.158C3.10267 9.066 3.93467 8.21667 4.992 7.61C6.04933 6.986 7.26267 6.674 8.632 6.674C9.984 6.674 11.1453 6.97733 12.116 7.584C13.0867 8.17333 13.8233 8.99667 14.326 10.054C14.846 11.094 15.106 12.2987 15.106 13.668C15.106 13.9973 14.9933 14.2747 14.768 14.5C14.5427 14.708 14.2567 14.812 13.91 14.812H3.432V12.732H13.832L12.766 13.46C12.7487 12.5933 12.5753 11.822 12.246 11.146C11.9167 10.4527 11.4487 9.90667 10.842 9.508C10.2353 9.10933 9.49867 8.91 8.632 8.91C7.644 8.91 6.79467 9.12667 6.084 9.56C5.39067 9.99333 4.862 10.5913 4.498 11.354C4.134 12.0993 3.952 12.9487 3.952 13.902C3.952 14.8553 4.16867 15.7047 4.602 16.45C5.03533 17.1953 5.63333 17.7847 6.396 18.218C7.15867 18.6513 8.034 18.868 9.022 18.868C9.55933 18.868 10.1053 18.7727 10.66 18.582C11.232 18.374 11.6913 18.14 12.038 17.88C12.298 17.6893 12.5753 17.594 12.87 17.594C13.182 17.5767 13.4507 17.6633 13.676 17.854C13.9707 18.114 14.1267 18.4 14.144 18.712C14.1613 19.024 14.0227 19.2927 13.728 19.518C13.1387 19.986 12.402 20.3673 11.518 20.662C10.6513 20.9567 9.81933 21.104 9.022 21.104Z" fill="#907FFE"/>
<path d="M22.3364 21.104C20.9324 21.104 19.6931 20.8007 18.6184 20.194C17.5438 19.57 16.6944 18.7207 16.0704 17.646C15.4638 16.554 15.1604 15.306 15.1604 13.902C15.1604 12.4807 15.4638 11.2327 16.0704 10.158C16.6944 9.066 17.5438 8.21667 18.6184 7.61C19.6931 6.986 20.9324 6.674 22.3364 6.674C23.7231 6.674 24.9538 6.986 26.0284 7.61C27.1031 8.21667 27.9438 9.066 28.5504 10.158C29.1744 11.2327 29.4864 12.4807 29.4864 13.902C29.4864 15.306 29.1831 16.554 28.5764 17.646C27.9698 18.7207 27.1291 19.57 26.0544 20.194C24.9798 20.8007 23.7404 21.104 22.3364 21.104ZM22.3364 18.764C23.2378 18.764 24.0351 18.556 24.7284 18.14C25.4218 17.724 25.9591 17.152 26.3404 16.424C26.7391 15.696 26.9384 14.8553 26.9384 13.902C26.9384 12.9487 26.7391 12.108 26.3404 11.38C25.9591 10.6347 25.4218 10.054 24.7284 9.638C24.0351 9.222 23.2378 9.014 22.3364 9.014C21.4351 9.014 20.6378 9.222 19.9444 9.638C19.2511 10.054 18.7051 10.6347 18.3064 11.38C17.9078 12.108 17.7084 12.9487 17.7084 13.902C17.7084 14.8553 17.9078 15.696 18.3064 16.424C18.7051 17.152 19.2511 17.724 19.9444 18.14C20.6378 18.556 21.4351 18.764 22.3364 18.764ZM31.0674 12.108C31.0674 11.068 31.3187 10.1407 31.8214 9.326C32.3414 8.494 33.0347 7.83533 33.9014 7.35C34.768 6.86467 35.7214 6.622 36.7614 6.622C37.8014 6.622 38.5727 6.79533 39.0754 7.142C39.5954 7.47133 39.7947 7.87 39.6734 8.338C39.6214 8.58067 39.5174 8.77133 39.3614 8.91C39.2227 9.03133 39.058 9.10933 38.8674 9.144C38.6767 9.17867 38.4687 9.17 38.2434 9.118C37.134 8.89267 36.1374 8.87533 35.2534 9.066C34.3694 9.25667 33.6674 9.612 33.1474 10.132C32.6447 10.652 32.3934 11.3107 32.3934 12.108H31.0674ZM31.0934 21C30.6774 21 30.3567 20.896 30.1314 20.688C29.906 20.4627 29.7934 20.1333 29.7934 19.7V8.078C29.7934 7.662 29.906 7.34133 30.1314 7.116C30.3567 6.89067 30.6774 6.778 31.0934 6.778C31.5267 6.778 31.8474 6.89067 32.0554 7.116C32.2807 7.324 32.3934 7.64467 32.3934 8.078V19.7C32.3934 20.116 32.2807 20.4367 32.0554 20.662C31.8474 20.8873 31.5267 21 31.0934 21ZM44.4659 21.104C43.1659 21.104 42.0132 20.8007 41.0079 20.194C40.0199 19.57 39.2399 18.7207 38.6679 17.646C38.0959 16.554 37.8099 15.306 37.8099 13.902C37.8099 12.4807 38.1132 11.2327 38.7199 10.158C39.3439 9.066 40.1932 8.21667 41.2679 7.61C42.3426 6.986 43.5819 6.674 44.9859 6.674C46.3726 6.674 47.6032 6.986 48.6779 7.61C49.7526 8.21667 50.5932 9.066 51.1999 10.158C51.8239 11.2327 52.1359 12.4807 52.1359 13.902H50.6019C50.6019 15.306 50.3332 16.554 49.7959 17.646C49.2759 18.7207 48.5566 19.57 47.6379 20.194C46.7192 20.8007 45.6619 21.104 44.4659 21.104ZM44.9339 26.902C43.7032 26.902 42.5506 26.6593 41.4759 26.174C40.4012 25.6887 39.4912 24.978 38.7459 24.042C38.5206 23.7473 38.4339 23.444 38.4859 23.132C38.5552 22.82 38.7286 22.5687 39.0059 22.378C39.3179 22.17 39.6386 22.1007 39.9679 22.17C40.3146 22.2393 40.5919 22.4127 40.7999 22.69C41.2679 23.2793 41.8572 23.7387 42.5679 24.068C43.2786 24.3973 44.0846 24.562 44.9859 24.562C45.8179 24.562 46.5806 24.3627 47.2739 23.964C47.9846 23.5653 48.5479 22.976 48.9639 22.196C49.3799 21.416 49.5879 20.4627 49.5879 19.336V15.644L50.4459 13.356L52.1359 13.902V19.518C52.1359 20.8873 51.8326 22.1267 51.2259 23.236C50.6192 24.3627 49.7699 25.2553 48.6779 25.914C47.6032 26.5727 46.3552 26.902 44.9339 26.902ZM44.9859 18.764C45.8872 18.764 46.6846 18.556 47.3779 18.14C48.0712 17.724 48.6086 17.152 48.9899 16.424C49.3886 15.696 49.5879 14.8553 49.5879 13.902C49.5879 12.9487 49.3886 12.108 48.9899 11.38C48.6086 10.6347 48.0712 10.054 47.3779 9.638C46.6846 9.222 45.8872 9.014 44.9859 9.014C44.0846 9.014 43.2872 9.222 42.5939 9.638C41.9006 10.054 41.3546 10.6347 40.9559 11.38C40.5572 12.108 40.3579 12.9487 40.3579 13.902C40.3579 14.8553 40.5572 15.696 40.9559 16.424C41.3546 17.152 41.9006 17.724 42.5939 18.14C43.2872 18.556 44.0846 18.764 44.9859 18.764Z" fill="#F4F4F4"/>
</svg>
